<?xml version="1.0" encoding="UTF-8"?>
<svg width="228px" height="60px" viewBox="0 0 228 60" version="1.1" xmlns="http://www.w3.org/2000/svg" xmlns:xlink="http://www.w3.org/1999/xlink">
    <title>Group 20</title>
    <defs>
        <polygon id="path-1" points="0 0 44.3009415 0 44.3009415 60 0 60"></polygon>
    </defs>
    <g id="Page-1" stroke="none" stroke-width="1" fill="none" fill-rule="evenodd">
        <g id="CIBERSEGURIDA" transform="translate(-90.000000, -63.000000)">
            <g id="Group-20" transform="translate(90.000000, 63.000000)">
                <g id="Group-3">
                    <mask id="mask-2" fill="white">
                        <use xlink:href="#path-1"></use>
                    </mask>
                    <g id="Clip-2"></g>
                    <path d="M38.9940443,52.9620244 L24.6575744,43.3054799 C27.2910046,42.9815707 29.9068457,42.1808726 32.3763461,40.8517277 C34.8458465,39.523281 36.949495,37.7850611 38.6598527,35.7724956 L38.9940443,52.9620244 Z M28.5067586,18.2143805 L28.5067586,18.2143805 C29.1955452,19.4744154 30.7827796,19.9421291 32.0527079,19.2587086 L37.6579813,16.2430017 C37.9576984,17.0841885 38.1736918,17.9400349 38.3298824,18.7993717 C38.6457814,20.5341012 38.6704061,22.2855846 38.4311952,23.9965794 C37.7276339,29.0318325 34.7220197,33.6859337 29.8829246,36.289075 C25.071972,38.8768586 19.5321299,38.8649913 14.9118424,36.740733 C13.2915406,35.9951832 11.7859193,34.9878534 10.4625203,33.7438743 C8.69376706,32.079651 7.24935558,29.9958813 6.31361897,27.5225829 C3.63867866,20.453822 6.12084315,12.497801 12.3748001,8.19553229 C17.12595,4.92712042 22.9908375,4.3330541 28.143721,6.39378709 C29.365807,6.88244328 30.7623764,6.42031414 31.4145777,5.28453752 C32.2011593,3.91490401 31.5855431,2.17458988 30.1122857,1.58331588 C23.1618029,-1.20551483 15.2192987,-0.314066318 8.88654287,4.2869808 C1.11641117,9.93235602 -1.96026267,19.9491099 1.26838043,28.9515532 C2.44051366,32.219267 4.27821594,34.9878534 6.54931202,37.2112391 C6.76319468,37.4199651 6.98200226,37.6217103 7.20292053,37.8213613 C8.7331665,39.1993717 10.4385992,40.3400349 12.2615267,41.2286911 L39.3078327,59.4464921 C41.4536948,60.8922164 44.350257,59.3341012 44.3003041,56.7609773 L43.6699131,24.3295637 C43.9133454,22.3309599 43.8809815,20.2911693 43.5517148,18.2688307 C43.5038727,17.975637 43.4525127,17.6824433 43.39271,17.3899476 C42.9712767,15.3417801 42.2452014,13.3208377 41.1905629,11.3906457 C40.5017763,10.1306108 38.9145419,9.66289703 37.6446136,10.3463176 L29.5592864,14.6960558 C28.2893582,15.3787784 27.817972,16.9543455 28.5067586,18.2143805 L28.5067586,18.2143805 Z" id="Fill-1" fill="#A7C94A" mask="url(#mask-2)"></path>
                </g>
                <path d="M18.6414212,22.8984991 C19.4484061,25.1274695 22.1648565,25.9274695 24.0672864,24.4964049 C25.2520838,23.6042583 25.736134,21.9875044 25.2330876,20.5983246 C24.4261027,18.3686562 21.7096523,17.5693543 19.8072224,19.0004188 C18.6217215,19.8925654 18.1383748,21.5093194 18.6414212,22.8984991" id="Fill-4" fill="#A7C94A"></path>
                <path d="M67.3771168,20.6478883 C69.643288,20.6478883 71.8271425,21.470925 73.541018,22.9243281 C74.4528335,23.7194415 75.8627705,23.610541 76.6641268,22.7051309 C77.4661868,21.7997208 77.3557277,20.401466 76.4432086,19.6063525 C73.9279767,17.4395113 70.7218476,16.2325305 67.3771168,16.2325305 C59.748401,16.2325305 53.5563574,22.3763351 53.5563574,29.9456195 C53.5563574,37.514904 59.7758399,43.6859337 67.4045557,43.6859337 C70.7218476,43.6859337 73.9005378,42.506178 76.4157697,40.3393368 C76.9131876,39.9281675 77.1341058,39.3250262 77.1341058,38.6939616 L77.1341058,29.9728447 C77.1341058,28.7658639 76.2222903,27.8611518 75.0058327,27.8611518 L67.6536165,27.8611518 C66.4371589,27.8611518 65.4423231,28.8482373 65.4423231,30.0552182 C65.4423231,31.262199 66.4371589,32.2492845 67.6536165,32.2492845 L72.7115191,32.2492845 L72.7115191,37.5972775 C71.3297246,38.6939616 69.2844717,39.297801 67.3489744,39.297801 C62.1806126,39.297801 57.9789441,35.1016405 57.9789441,29.9728447 C57.9789441,24.8440489 62.2080515,20.6478883 67.3771168,20.6478883" id="Fill-6" fill="#000000"></path>
                <path d="M96.5495852,39.3794764 L85.5761386,39.3794764 L85.5761386,18.453822 C85.5761386,17.2468412 84.5813029,16.2597557 83.3648453,16.2597557 C82.1490912,16.2597557 81.1535519,17.2468412 81.1535519,18.453822 L81.1535519,41.4911693 C81.1535519,42.697452 82.2314079,43.7676091 83.4478655,43.7676091 L96.5495852,43.7676091 C97.7660428,43.7676091 98.7608786,42.7805236 98.7608786,41.5735428 C98.7608786,40.366562 97.7660428,39.3794764 96.5495852,39.3794764" id="Fill-8" fill="#000000"></path>
                <path d="M115.008221,39.297801 C109.839156,39.297801 105.610048,35.1016405 105.610048,29.9728447 C105.610048,24.8440489 109.839156,20.6478883 115.008221,20.6478883 C120.176583,20.6478883 124.406394,24.8440489 124.406394,29.9728447 C124.406394,35.1016405 120.204725,39.297801 115.008221,39.297801 M115.008221,16.2597557 C107.379505,16.2597557 101.187462,22.4035602 101.187462,29.9728447 C101.187462,37.5421291 107.379505,43.6859337 115.008221,43.6859337 C122.636937,43.6859337 128.828277,37.5421291 128.828277,29.9728447 C128.828277,22.4035602 122.636937,16.2597557 115.008221,16.2597557" id="Fill-10" fill="#000000"></path>
                <path d="M148.150183,16.3421291 L135.048463,16.3421291 C133.832005,16.3421291 132.809731,17.2203141 132.809731,18.453822 L132.809731,41.4911693 C132.809731,42.6981501 133.804567,43.6859337 135.021024,43.6859337 C136.236778,43.6859337 137.232318,42.6981501 137.232318,41.4911693 L137.232318,32.2492845 L146.657929,32.2492845 C147.873683,32.2492845 148.868519,31.262199 148.868519,30.0552182 C148.868519,28.8482373 147.873683,27.8611518 146.657929,27.8611518 L137.232318,27.8611518 L137.232318,20.7302618 L148.150183,20.7302618 C149.365937,20.7302618 150.361476,19.7431763 150.361476,18.5361955 C150.361476,17.3299127 149.365937,16.3421291 148.150183,16.3421291" id="Fill-12" fill="#000000"></path>
                <path d="M169.754442,39.3794764 L158.753556,39.3794764 L158.753556,32.2485864 L168.261484,32.2485864 C169.477942,32.2485864 170.472778,31.2615009 170.472778,30.0545201 C170.472778,28.8482373 169.477942,27.8604538 168.261484,27.8604538 L158.753556,27.8604538 L158.753556,20.7302618 L169.727003,20.7302618 C170.942757,20.7302618 171.938296,19.7424782 171.938296,18.5361955 C171.938296,17.3292147 170.942757,16.3414311 169.727003,16.3414311 L156.625283,16.3414311 C155.408825,16.3414311 154.30353,17.2196161 154.30353,18.453822 L154.30353,41.4911693 C154.330969,42.697452 155.408825,43.7676091 156.652722,43.7676091 L169.754442,43.7676091 C170.970196,43.7676091 171.965735,42.7805236 171.965735,41.5735428 C171.965735,40.366562 170.970196,39.3794764 169.754442,39.3794764" id="Fill-14" fill="#000000"></path>
                <path d="M185.245456,29.862548 L180.325451,29.862548 L180.325451,20.8126353 L185.245456,20.8126353 C187.760688,20.8126353 189.834083,22.8419546 189.834083,25.3375916 C189.834083,27.8332286 187.788126,29.862548 185.245456,29.862548 M218.111621,40.7505061 L208.76903,17.7131588 C208.436949,16.8901222 207.608154,16.3421291 206.723777,16.3421291 C205.8394,16.3421291 205.009901,16.8901222 204.677821,17.7131588 L195.891746,39.3787784 L193.185849,39.3787784 L188.783666,33.4827923 C192.017234,32.1117627 194.284109,28.9850611 194.284109,25.3096684 C194.284109,20.3735428 190.248481,16.4238045 185.272895,16.4238045 L178.086015,16.4238045 C176.870261,16.4238045 175.930303,17.3019895 175.930303,18.5361955 L175.930303,41.5735428 C175.902864,42.7798255 176.8977,43.7676091 178.114158,43.7676091 C179.330615,43.7676091 180.325451,42.7798255 180.325451,41.5735428 L180.325451,34.2506806 L183.80808,34.2506806 L190.275919,42.8901222 C190.69876,43.4409075 191.324226,43.7375916 191.957431,43.7627225 L191.957431,43.7676091 L197.268616,43.7676091 L197.268616,43.7452705 C198.19802,43.7941361 199.080286,43.2908202 199.453877,42.3958813 L202.079568,35.8960558 L203.876464,31.5079232 L206.751216,24.4049564 L209.625968,31.5079232 L211.394721,35.8960558 L214.020412,42.3958813 C214.379932,43.2461431 215.209431,43.7676091 216.065665,43.7676091 C216.342164,43.7676091 216.618664,43.7124607 216.895164,43.6028621 C218.028601,43.1365445 218.5816,41.8751134 218.111621,40.7505061" id="Fill-16" fill="#000000"></path>
                <path d="M222.278112,40.4601047 C221.980505,42.3902967 223.631764,44.0286911 225.577111,43.7327051 C226.789347,43.5484119 227.779961,42.5655148 227.964998,41.3627225 C228.263308,39.4325305 226.611346,37.7941361 224.666702,38.0901222 C223.454466,38.2744154 222.463852,39.2573124 222.278112,40.4601047" id="Fill-18" fill="#A7C94A"></path>
            </g>
        </g>
    </g>
</svg>