<svg xmlns="http://www.w3.org/2000/svg" xmlns:xlink="http://www.w3.org/1999/xlink" viewBox="0,0,256,256" width="48px" height="48px" fill-rule="nonzero"><g fill="#000000" fill-rule="nonzero" stroke="none" stroke-width="1" stroke-linecap="butt" stroke-linejoin="miter" stroke-miterlimit="10" stroke-dasharray="" stroke-dashoffset="0" font-family="none" font-weight="none" font-size="none" text-anchor="none" style="mix-blend-mode: normal"><g transform="scale(4,4)"><path d="M45,9c-7.168,0 -13,5.832 -13,13v5h-20c-3.314,0 -6,2.686 -6,6v16c0,3.314 2.686,6 6,6h22c3.314,0 6,-2.686 6,-6v-16c0,-2.61187 -1.67066,-4.82814 -4,-5.65234v-5.34766c0,-4.962 4.037,-9 9,-9c4.963,0 9,4.038 9,9v7c0,1.105 0.896,2 2,2c1.104,0 2,-0.895 2,-2v-7c0,-7.168 -5.832,-13 -13,-13z"></path></g></g></svg>