<svg viewBox="0 0 24 24" fill="none" xmlns="http://www.w3.org/2000/svg">
  <g transform="translate(2.9 0)">
    <!-- Speaker -->
    <path
      d="M2 10.2C2 9.08 2 8.52 2.22 8.09C2.41 7.72 2.72 7.41 3.09 7.22C3.52 7 4.08 7 5.2 7H6.35C6.76 7 6.97 7 7.17 6.95C7.34 6.91 7.5 6.84 7.65 6.75C7.83 6.64 7.99 6.51 8.32 6.25L10.65 4.39C11.74 3.52 12.29 3.08 12.75 3.25C13.21 3.42 13.21 4.12 13.21 5.52V18.48C13.21 19.88 13.21 20.58 12.75 20.75C12.29 20.92 11.74 20.48 10.65 19.61L8.32 17.75C7.99 17.49 7.83 17.36 7.65 17.25C7.5 17.16 7.34 17.09 7.17 17.05C6.97 17 6.76 17 6.35 17H5.2C4.08 17 3.52 17 3.09 16.78C2.72 16.59 2.41 16.28 2.22 15.91C2 15.48 2 14.92 2 13.8V10.2Z"
      fill="#1C274C"
    />

    <!-- Volume bar -->
    <path
      d="M15.2 9.2C15.85 10.05 16.2 11.02 16.2 12C16.2 12.98 15.85 13.95 15.2 14.8"
      stroke="#1C274C"
      stroke-width="1.5"
      stroke-linecap="round"
    />
  </g>
</svg>