<svg viewBox="0 0 24 24" fill="none" xmlns="http://www.w3.org/2000/svg">
  <!-- Speaker -->
  <path
    d="M1.2 10.2C1.2 9.08 1.2 8.52 1.42 8.09C1.61 7.72 1.92 7.41 2.29 7.22C2.72 7 3.28 7 4.4 7H5.55C5.96 7 6.17 7 6.37 6.95C6.54 6.91 6.7 6.84 6.85 6.75C7.03 6.64 7.19 6.51 7.52 6.25L9.85 4.39C10.94 3.52 11.49 3.08 11.95 3.25C12.41 3.42 12.41 4.12 12.41 5.52V18.48C12.41 19.88 12.41 20.58 11.95 20.75C11.49 20.92 10.94 20.48 9.85 19.61L7.52 17.75C7.19 17.49 7.03 17.36 6.85 17.25C6.7 17.16 6.54 17.09 6.37 17.05C6.17 17 5.96 17 5.55 17H4.4C3.28 17 2.72 17 2.29 16.78C1.92 16.59 1.61 16.28 1.42 15.91C1.2 15.48 1.2 14.92 1.2 13.8V10.2Z"
    fill="#1C274C"
  />

  <!-- Volume bars with wide gap -->
  <path
    d="M14.2 9.4C14.7 10.1 14.95 10.98 14.95 12C14.95 13.02 14.7 13.9 14.2 14.6"
    stroke="#1C274C"
    stroke-width="1.5"
    stroke-linecap="round"
  />

  <path
    d="M16.5 7.9C17.3 8.95 17.75 10.3 17.75 12C17.75 13.7 17.3 15.05 16.5 16.1"
    stroke="#1C274C"
    stroke-width="1.5"
    stroke-linecap="round"
  />

  <path
    d="M18.8 6.2C19.85 7.6 20.45 9.55 20.45 12C20.45 14.45 19.85 16.4 18.8 17.8"
    stroke="#1C274C"
    stroke-width="1.5"
    stroke-linecap="round"
  />

  <path
    d="M21.1 4.5C22.25 6.25 22.85 8.8 22.85 12C22.85 15.2 22.25 17.75 21.1 19.5"
    stroke="#1C274C"
    stroke-width="1.5"
    stroke-linecap="round"
  />
</svg>