<svg viewBox="0 0 24 24" fill="none" xmlns="http://www.w3.org/2000/svg">
  <!-- Speaker -->
  <path
    d="M2.5 10.2C2.5 9.08 2.5 8.52 2.72 8.09C2.91 7.72 3.22 7.41 3.59 7.22C4.02 7 4.58 7 5.7 7H6.85C7.26 7 7.47 7 7.67 6.95C7.84 6.91 8 6.84 8.15 6.75C8.33 6.64 8.49 6.51 8.82 6.25L11.15 4.39C12.24 3.52 12.79 3.08 13.25 3.25C13.71 3.42 13.71 4.12 13.71 5.52V18.48C13.71 19.88 13.71 20.58 13.25 20.75C12.79 20.92 12.24 20.48 11.15 19.61L8.82 17.75C8.49 17.49 8.33 17.36 8.15 17.25C8 17.16 7.84 17.09 7.67 17.05C7.47 17 7.26 17 6.85 17H5.7C4.58 17 4.02 17 3.59 16.78C3.22 16.59 2.91 16.28 2.72 15.91C2.5 15.48 2.5 14.92 2.5 13.8V10.2Z"
    fill="#1C274C"
  />

  <!-- Mute X -->
  <path
    d="M17 9L21 13"
    stroke="#1C274C"
    stroke-width="1.5"
    stroke-linecap="round"
  />
  <path
    d="M21 9L17 13"
    stroke="#1C274C"
    stroke-width="1.5"
    stroke-linecap="round"
  />
</svg>